<?xml version="1.0" encoding="UTF-8" standalone="no"?>
<svg
   xmlns:dc="http://purl.org/dc/elements/1.1/"
   xmlns:cc="http://creativecommons.org/ns#"
   xmlns:rdf="http://www.w3.org/1999/02/22-rdf-syntax-ns#"
   xmlns:svg="http://www.w3.org/2000/svg"
   xmlns="http://www.w3.org/2000/svg"
   xml:space="preserve"
   enable-background="new 0 0 512 512"
   viewBox="0 0 512 512"
   height="512px"
   width="512px"
   y="0px"
   x="0px"
   id="Layer_1"
   version="1.1"><metadata
     id="metadata9"><rdf:RDF><cc:Work
         rdf:about=""><dc:format>image/svg+xml</dc:format><dc:type
           rdf:resource="http://purl.org/dc/dcmitype/StillImage" /><dc:title></dc:title></cc:Work></rdf:RDF></metadata><defs
     id="defs7" /><path
     style="fill:#002255"
     id="path3"
     d="M256,0C167.641,0,96,71.625,96,160c0,24.75,5.625,48.219,15.672,69.125C112.234,230.313,256,512,256,512l142.594-279.375  C409.719,210.844,416,186.156,416,160C416,71.625,344.375,0,256,0z M256,256c-53.016,0-96-43-96-96s42.984-96,96-96  c53,0,96,43,96,96S309,256,256,256z" /></svg>